<?xml version="1.0" encoding="UTF-8" standalone="no" ?>
<!DOCTYPE svg PUBLIC "-//W3C//DTD SVG 1.1//EN" "http://www.w3.org/Graphics/SVG/1.1/DTD/svg11.dtd">
<svg xmlns="http://www.w3.org/2000/svg" xmlns:xlink="http://www.w3.org/1999/xlink" version="1.1" width="1080"
  height="1080" viewBox="0 0 1080 1080" xml:space="preserve">
  <desc>Created with Fabric.js 5.2.4</desc>
  <defs>
  </defs>
  <g transform="matrix(1 0 0 1 540 540)" id="e282fe43-4424-4b6a-b638-884329e1933c">
  </g>
  <g transform="matrix(1 0 0 1 540 540)" id="15dfd089-cce8-447c-a885-5cc46d49419f">
    <rect
      style="stroke: none; stroke-width: 1; stroke-dasharray: none; stroke-linecap: butt; stroke-dashoffset: 0; stroke-linejoin: miter; stroke-miterlimit: 4; fill: rgb(255,255,255); fill-rule: nonzero; opacity: 1; visibility: hidden;"
      vector-effect="non-scaling-stroke" x="-540" y="-540" rx="0" ry="0" width="1080" height="1080" />
  </g>
  <g transform="matrix(34.18 0 0 34.18 540.04 546.88)">
    <g style="">
      <g transform="matrix(1 0 0 1 -13.1 -13.26)">
        <path
          style="stroke: none; stroke-width: 1; stroke-dasharray: none; stroke-linecap: butt; stroke-dashoffset: 0; stroke-linejoin: miter; stroke-miterlimit: 4; fill: rgb(54,98,227); fill-rule: nonzero; opacity: 1;"
          vector-effect="non-scaling-stroke" transform=" translate(-2.7, -2.74)"
          d="M 0 0.576577 C 0 0.258142 0.254955 0 0.569459 0 L 4.8404 0 C 5.1549 0 5.40986 0.258142 5.40986 0.576577 L 5.40986 4.9009 C 5.40986 5.21934 5.1549 5.47748 4.8404 5.47748 L 0.569459 5.47748 C 0.254955 5.47748 0 5.21934 0 4.9009 L 0 0.576577 Z"
          stroke-linecap="round" />
      </g>
      <g transform="matrix(1 0 0 1 13.1 -13.26)">
        <path
          style="stroke: none; stroke-width: 1; stroke-dasharray: none; stroke-linecap: butt; stroke-dashoffset: 0; stroke-linejoin: miter; stroke-miterlimit: 4; fill: rgb(54,98,227); fill-rule: nonzero; opacity: 1;"
          vector-effect="non-scaling-stroke" transform=" translate(-28.9, -2.74)"
          d="M 26.1951 0.576577 C 26.1951 0.258142 26.45 0 26.7645 0 L 31.0354 0 C 31.3499 0 31.6049 0.258142 31.6049 0.576577 L 31.6049 4.9009 C 31.6049 5.21934 31.3499 5.47748 31.0354 5.47748 L 26.7645 5.47748 C 26.45 5.47748 26.1951 5.21934 26.1951 4.9009 L 26.1951 0.576577 Z"
          stroke-linecap="round" />
      </g>
      <g transform="matrix(1 0 0 1 -6.55 -6.63)">
        <path
          style="stroke: none; stroke-width: 1; stroke-dasharray: none; stroke-linecap: butt; stroke-dashoffset: 0; stroke-linejoin: miter; stroke-miterlimit: 4; fill: rgb(54,98,227); fill-rule: nonzero; opacity: 1;"
          vector-effect="non-scaling-stroke" transform=" translate(-9.25, -9.37)"
          d="M 6.54883 7.20721 C 6.54883 6.88877 6.80379 6.63063 7.11829 6.63063 L 11.3892 6.63063 C 11.7038 6.63063 11.9587 6.88877 11.9587 7.20721 L 11.9587 11.5315 C 11.9587 11.85 11.7038 12.1081 11.3892 12.1081 L 7.11829 12.1081 C 6.80379 12.1081 6.54883 11.85 6.54883 11.5315 L 6.54883 7.20721 Z"
          stroke-linecap="round" />
      </g>
      <g transform="matrix(1 0 0 1 6.55 -6.63)">
        <path
          style="stroke: none; stroke-width: 1; stroke-dasharray: none; stroke-linecap: butt; stroke-dashoffset: 0; stroke-linejoin: miter; stroke-miterlimit: 4; fill: rgb(54,98,227); fill-rule: nonzero; opacity: 1;"
          vector-effect="non-scaling-stroke" transform=" translate(-22.35, -9.37)"
          d="M 19.6464 7.20721 C 19.6464 6.88877 19.9013 6.63063 20.2158 6.63063 L 24.4867 6.63063 C 24.8012 6.63063 25.0562 6.88877 25.0562 7.20721 L 25.0562 11.5315 C 25.0562 11.85 24.8012 12.1081 24.4867 12.1081 L 20.2158 12.1081 C 19.9013 12.1081 19.6464 11.85 19.6464 11.5315 L 19.6464 7.20721 Z"
          stroke-linecap="round" />
      </g>
      <g transform="matrix(1 0 0 1 -6.55 0)">
        <path
          style="stroke: none; stroke-width: 1; stroke-dasharray: none; stroke-linecap: butt; stroke-dashoffset: 0; stroke-linejoin: miter; stroke-miterlimit: 4; fill: rgb(54,98,227); fill-rule: nonzero; opacity: 1;"
          vector-effect="non-scaling-stroke" transform=" translate(-9.25, -16)"
          d="M 6.54883 13.8378 C 6.54883 13.5194 6.80379 13.2613 7.11829 13.2613 L 11.3892 13.2613 C 11.7038 13.2613 11.9587 13.5194 11.9587 13.8378 L 11.9587 18.1622 C 11.9587 18.4806 11.7038 18.7387 11.3892 18.7387 L 7.11829 18.7387 C 6.80379 18.7387 6.54883 18.4806 6.54883 18.1622 L 6.54883 13.8378 Z"
          stroke-linecap="round" />
      </g>
      <g transform="matrix(1 0 0 1 0 0)">
        <path
          style="stroke: none; stroke-width: 1; stroke-dasharray: none; stroke-linecap: butt; stroke-dashoffset: 0; stroke-linejoin: miter; stroke-miterlimit: 4; fill: rgb(54,98,227); fill-rule: nonzero; opacity: 1;"
          vector-effect="non-scaling-stroke" transform=" translate(-15.8, -16)"
          d="M 13.0975 13.8378 C 13.0975 13.5194 13.3525 13.2613 13.667 13.2613 L 17.9379 13.2613 C 18.2524 13.2613 18.5074 13.5194 18.5074 13.8378 L 18.5074 18.1622 C 18.5074 18.4806 18.2524 18.7387 17.9379 18.7387 L 13.667 18.7387 C 13.3525 18.7387 13.0975 18.4806 13.0975 18.1622 L 13.0975 13.8378 Z"
          stroke-linecap="round" />
      </g>
      <g transform="matrix(1 0 0 1 -13.1 6.63)">
        <path
          style="stroke: none; stroke-width: 1; stroke-dasharray: none; stroke-linecap: butt; stroke-dashoffset: 0; stroke-linejoin: miter; stroke-miterlimit: 4; fill: rgb(54,98,227); fill-rule: nonzero; opacity: 1;"
          vector-effect="non-scaling-stroke" transform=" translate(-2.7, -22.63)"
          d="M 0 20.4685 C 0 20.15 0.254955 19.8919 0.569459 19.8919 L 4.8404 19.8919 C 5.1549 19.8919 5.40986 20.15 5.40986 20.4685 L 5.40986 24.7928 C 5.40986 25.1112 5.1549 25.3694 4.8404 25.3694 L 0.569459 25.3694 C 0.254955 25.3694 0 25.1112 0 24.7928 L 0 20.4685 Z"
          stroke-linecap="round" />
      </g>
      <g transform="matrix(1 0 0 1 0 6.63)">
        <path
          style="stroke: none; stroke-width: 1; stroke-dasharray: none; stroke-linecap: butt; stroke-dashoffset: 0; stroke-linejoin: miter; stroke-miterlimit: 4; fill: rgb(54,98,227); fill-rule: nonzero; opacity: 1;"
          vector-effect="non-scaling-stroke" transform=" translate(-15.8, -22.63)"
          d="M 13.0975 20.4685 C 13.0975 20.15 13.3525 19.8919 13.667 19.8919 L 17.9379 19.8919 C 18.2524 19.8919 18.5074 20.15 18.5074 20.4685 L 18.5074 24.7928 C 18.5074 25.1112 18.2524 25.3694 17.9379 25.3694 L 13.667 25.3694 C 13.3525 25.3694 13.0975 25.1112 13.0975 24.7928 L 13.0975 20.4685 Z"
          stroke-linecap="round" />
      </g>
      <g transform="matrix(1 0 0 1 6.55 6.63)">
        <path
          style="stroke: none; stroke-width: 1; stroke-dasharray: none; stroke-linecap: butt; stroke-dashoffset: 0; stroke-linejoin: miter; stroke-miterlimit: 4; fill: rgb(54,98,227); fill-rule: nonzero; opacity: 1;"
          vector-effect="non-scaling-stroke" transform=" translate(-22.35, -22.63)"
          d="M 19.6464 20.4685 C 19.6464 20.15 19.9013 19.8919 20.2158 19.8919 L 24.4867 19.8919 C 24.8012 19.8919 25.0562 20.15 25.0562 20.4685 L 25.0562 24.7928 C 25.0562 25.1112 24.8012 25.3694 24.4867 25.3694 L 20.2158 25.3694 C 19.9013 25.3694 19.6464 25.1112 19.6464 24.7928 L 19.6464 20.4685 Z"
          stroke-linecap="round" />
      </g>
      <g transform="matrix(1 0 0 1 -6.55 13.26)">
        <path
          style="stroke: none; stroke-width: 1; stroke-dasharray: none; stroke-linecap: butt; stroke-dashoffset: 0; stroke-linejoin: miter; stroke-miterlimit: 4; fill: rgb(54,98,227); fill-rule: nonzero; opacity: 1;"
          vector-effect="non-scaling-stroke" transform=" translate(-9.25, -29.26)"
          d="M 6.54883 27.0991 C 6.54883 26.7806 6.80379 26.5226 7.11829 26.5226 L 11.3892 26.5226 C 11.7038 26.5226 11.9587 26.7806 11.9587 27.0991 L 11.9587 31.4234 C 11.9587 31.7418 11.7038 32 11.3892 32 L 7.11829 32 C 6.80379 32 6.54883 31.7418 6.54883 31.4234 L 6.54883 27.0991 Z"
          stroke-linecap="round" />
      </g>
      <g transform="matrix(1 0 0 1 6.55 13.26)">
        <path
          style="stroke: none; stroke-width: 1; stroke-dasharray: none; stroke-linecap: butt; stroke-dashoffset: 0; stroke-linejoin: miter; stroke-miterlimit: 4; fill: rgb(54,98,227); fill-rule: nonzero; opacity: 1;"
          vector-effect="non-scaling-stroke" transform=" translate(-22.35, -29.26)"
          d="M 19.6464 27.0991 C 19.6464 26.7806 19.9013 26.5226 20.2158 26.5226 L 24.4867 26.5226 C 24.8012 26.5226 25.0562 26.7806 25.0562 27.0991 L 25.0562 31.4234 C 25.0562 31.7418 24.8012 32 24.4867 32 L 20.2158 32 C 19.9013 32 19.6464 31.7418 19.6464 31.4234 L 19.6464 27.0991 Z"
          stroke-linecap="round" />
      </g>
      <g transform="matrix(1 0 0 1 13.1 13.26)">
        <path
          style="stroke: none; stroke-width: 1; stroke-dasharray: none; stroke-linecap: butt; stroke-dashoffset: 0; stroke-linejoin: miter; stroke-miterlimit: 4; fill: rgb(54,98,227); fill-rule: nonzero; opacity: 1;"
          vector-effect="non-scaling-stroke" transform=" translate(-28.9, -29.26)"
          d="M 26.1951 27.0991 C 26.1951 26.7806 26.45 26.5226 26.7645 26.5226 L 31.0354 26.5226 C 31.3499 26.5226 31.6049 26.7806 31.6049 27.0991 L 31.6049 31.4234 C 31.6049 31.7418 31.3499 32 31.0354 32 L 26.7645 32 C 26.45 32 26.1951 31.7418 26.1951 31.4234 L 26.1951 27.0991 Z"
          stroke-linecap="round" />
      </g>
    </g>
  </g>
  <g transform="matrix(0.55 0 0 0.55 540 555)" style="" id="da698bda-8042-4a51-b255-7a0a3c64813d">
    <text xml:space="preserve" font-family="Raleway" font-size="200" font-style="normal" font-weight="900"
      style="stroke: none; stroke-width: 1; stroke-dasharray: none; stroke-linecap: butt; stroke-dashoffset: 0; stroke-linejoin: miter; stroke-miterlimit: 4; fill: rgb(255,255,255); fill-rule: nonzero; opacity: 1; white-space: pre;">
      <tspan x="-148.5" y="62.83">Q</tspan>
      <tspan x="13.5" y="62.83">R</tspan>
    </text>
  </g>
</svg>